<svg width="560" height="244" viewBox="0 0 560 244" fill="none" xmlns="http://www.w3.org/2000/svg">
<path d="M54.5387 206.915C55.835 201.762 52.4373 196.616 48.6408 192.904C44.8442 189.193 40.3113 185.875 38.3183 180.95C35.0918 172.972 39.3108 162.594 33.8427 155.954C30.6255 152.046 24.89 150.766 22.0313 146.589C20.5322 144.398 20.0356 141.699 19.436 139.11C16.3408 125.84 9.7457 113.646 0.33945 103.801C-0.225765 115.644 2.40215 127.42 7.94735 137.895C10.1707 142.079 12.8933 146.15 13.6486 150.828C14.8755 158.423 10.6841 166.279 12.5908 173.732C14.771 182.256 24.3759 187.915 24.8799 196.699C25.3057 204.126 18.8788 210.683 19.4023 218.104C19.626 221.264 21.1062 224.19 22.7522 226.895C28.5403 236.411 37.0018 242.941 49.7693 242.655L65.4122 243.115L54.5387 206.915Z" fill="#7159C1"/>
<path d="M4.54667 113.747C4.54062 113.85 4.55285 113.953 4.58314 114.054C4.63056 114.282 4.69256 114.576 4.76864 114.946C4.95778 115.73 5.1709 116.88 5.59504 118.368C6.04992 119.865 7.25981 121.546 8.23314 123.575C9.2591 125.598 10.2819 127.933 11.1922 130.548C12.1161 133.161 12.8966 136.054 13.7157 139.168C14.5614 142.258 15.4284 145.674 17.8518 148.91C18.9732 150.536 20.2315 152.163 21.1798 153.898C22.1059 155.679 22.6821 157.528 22.8951 159.402C23.3711 163.384 24.1794 167.347 25.3165 171.273C27.8066 179.311 30.1795 186.967 32.3377 193.936C34.6101 200.878 36.6578 207.131 38.382 212.395L42.5218 224.831C43.0178 226.271 43.4076 227.402 43.6853 228.207C43.8192 228.569 43.9255 228.858 44.0073 229.081C44.0359 229.182 44.0817 229.281 44.1438 229.375C44.1412 229.273 44.1218 229.171 44.086 229.071C44.0224 228.844 43.9411 228.552 43.839 228.186C43.5952 227.376 43.2539 226.239 42.8183 224.789C41.8866 221.811 40.5579 217.56 38.9202 212.321C37.243 207.051 35.251 200.789 33.0396 193.841C30.9007 186.873 28.5502 179.22 26.0824 171.184C24.9491 167.27 24.1381 163.321 23.6528 159.352C23.43 157.44 22.8348 155.553 21.8812 153.737C20.9037 151.965 19.6297 150.332 18.5058 148.72C16.0964 145.532 15.2315 142.195 14.3509 139.095C13.5052 135.986 12.6918 133.085 11.7289 130.467C10.7811 127.847 9.71555 125.508 8.64634 123.485C7.62455 121.449 6.3787 119.782 5.89099 118.324C5.4283 116.864 5.16152 115.701 4.92391 114.927C4.81553 114.56 4.72956 114.269 4.66339 114.043C4.64084 113.942 4.60171 113.843 4.54667 113.747Z" fill="#F0F0F5"/>
<path d="M71.3439 243.537C81.5248 237.396 84.3519 218.919 80.0271 207.83C75.7023 196.742 68.1867 186.633 66.9693 174.791C66.0341 165.689 68.9582 156.326 66.7901 147.436C63.8633 135.438 52.1025 126.199 52.1699 113.85C52.2062 106.921 56.1045 100.378 55.7515 93.4591C55.3196 84.9714 48.7749 78.2748 44.7021 70.8162C38.4686 59.4043 37.9862 45.8707 35.8046 33.0483C33.6231 20.226 28.663 6.50471 17.2666 0.260223C15.6496 11.168 12.8313 18.6481 13.8137 33.4067C14.166 38.707 20.3739 48.8225 21.276 60.4382C21.815 67.3805 22.2018 74.3336 22.6653 81.2826C23.1147 88.044 23.5924 94.9276 26.0488 101.242C27.9306 106.08 30.9355 110.469 32.3409 115.468C34.9847 124.871 31.6389 135.091 33.7854 144.622C35.6045 152.695 41.2283 159.62 42.4161 167.813C44.0856 179.321 36.7108 191.331 40.5828 202.298C42.5037 207.74 47.0056 212.091 48.3073 217.714C49.3179 222.076 48.2696 226.705 49.1872 231.087C50.6654 238.149 64.1571 243.562 71.3446 243.084" fill="#7159C1"/>
<path d="M20.6004 10.9666C20.5935 11.1607 20.6074 11.3551 20.6418 11.5459C20.6956 11.9766 20.766 12.5312 20.8524 13.23C21.0671 14.7115 21.309 16.8848 21.7904 19.6953C22.3068 22.5216 23.6802 25.6973 24.785 29.5306C25.9496 33.3518 27.1107 37.7625 28.144 42.7012C29.1927 47.6373 30.0787 53.1013 31.0085 58.9833C31.9684 64.8209 32.9526 71.2734 35.7036 77.3854C36.9764 80.4563 38.4048 83.5292 39.4813 86.8072C40.5324 90.1716 41.1866 93.6643 41.4284 97.2035C41.9687 104.725 42.8862 112.21 44.177 119.626C47.0036 134.809 49.6971 149.271 52.147 162.435C54.7264 175.546 57.0509 187.358 59.0081 197.302L63.7073 220.792C64.2704 223.512 64.7128 225.648 65.028 227.168C65.18 227.852 65.3007 228.398 65.3936 228.82C65.426 229.01 65.478 229.197 65.5485 229.375C65.5456 229.182 65.5236 228.989 65.4829 228.8C65.4107 228.372 65.3184 227.821 65.2025 227.128C64.9257 225.599 64.5383 223.451 64.0438 220.712C62.9863 215.087 61.478 207.058 59.619 197.162C57.7151 187.206 55.4539 175.379 52.9437 162.254C50.5157 149.094 47.8476 134.637 45.0464 119.458C43.7599 112.066 42.8393 104.605 42.2884 97.1082C42.0356 93.4966 41.3599 89.9336 40.2774 86.5035C39.1678 83.1562 37.7217 80.0707 36.4459 77.0258C33.7109 71.004 32.7291 64.7015 31.7295 58.8448C30.7695 52.9736 29.8462 47.4931 28.7532 42.5481C27.6773 37.5993 26.4678 33.1816 25.2541 29.3604C24.0942 25.5144 22.68 22.366 22.1264 19.6114C21.6012 16.853 21.2983 14.6562 21.0286 13.1951C20.9056 12.5026 20.808 11.9519 20.7329 11.5256C20.7073 11.3347 20.6629 11.1473 20.6004 10.9666Z" fill="#F0F0F5"/>
<path d="M469.417 236.533C444.048 221.433 436.264 190.5 435.143 162.259C434.955 157.546 434.075 152.628 436.002 148.335C437.93 144.042 442.936 140.844 447.284 142.512C450.892 143.898 452.71 147.847 454.908 151.062C457.844 155.349 461.93 158.718 466.695 160.78C469.798 162.113 473.567 162.79 476.397 160.941C480.281 158.405 480.345 152.765 479.972 148.09C479.274 139.377 478.577 130.665 477.883 121.954C477.51 117.279 477.142 112.506 478.269 107.96C479.396 103.414 482.299 99.052 486.648 97.4776C490.997 95.9031 496.679 98.0627 497.954 102.571C498.486 104.448 498.244 106.453 498.516 108.384C498.789 110.315 499.852 112.397 501.732 112.802C503.636 113.213 505.405 111.748 506.7 110.277C511.172 105.198 513.993 98.8718 516.604 92.5956C519.216 86.3194 521.725 79.9082 525.718 74.4344C529.711 68.9606 535.459 64.4317 542.118 63.557C548.776 62.6824 556.205 66.2916 558.38 72.7412C560.56 79.2091 557.213 86.1817 553.428 91.8283C547.813 100.204 541.019 107.723 533.256 114.151C531.861 115.307 530.35 116.555 529.914 118.329C529.13 121.521 532.308 124.402 535.457 125.199C539.022 126.102 542.772 125.461 546.444 125.621C550.116 125.781 554.178 127.098 555.809 130.442C558.074 135.081 554.451 140.387 550.766 143.959C543.383 151.114 534.826 156.943 525.469 161.19C522.128 162.703 518.597 164.075 516.003 166.697C513.409 169.319 512.05 173.648 513.966 176.815C515.882 179.982 520.255 180.729 523.803 179.791C527.35 178.853 530.426 176.662 533.76 175.114C539.997 172.212 548.313 172.043 552.835 177.295C555.805 180.745 556.418 185.811 555.371 190.265C554.325 194.72 551.833 198.672 549.146 202.345C539.753 215.191 527.305 225.893 512.802 232.164C498.298 238.435 484.61 240.858 469.417 236.533Z" fill="#7159C1"/>
<path d="M474.01 237.859C474.207 226.625 472.259 232.851 475.377 218.337C478.468 203.815 483.175 188.177 488.658 171.992C490.045 167.95 491.413 163.961 492.763 160.023C494.119 156.097 495.464 152.204 497.014 148.478C500.003 141.329 503.386 134.352 507.146 127.578C510.69 121.087 514.288 115.056 517.695 109.442C521.114 103.833 524.401 98.6645 527.596 94.0829C532.602 86.8253 538.175 79.9775 544.264 73.6043C546.414 71.3482 548.139 69.6536 549.323 68.5206C549.895 67.9807 550.341 67.5602 550.678 67.2417C550.825 67.0884 550.987 66.9497 551.16 66.8273C551.035 66.9998 550.895 67.16 550.74 67.3058C550.418 67.6392 549.989 68.0826 549.445 68.6474C548.299 69.819 546.615 71.5493 544.505 73.8378C538.529 80.2839 533.043 87.1696 528.094 94.4372C524.939 99.0263 521.693 104.202 518.304 109.824C514.915 115.446 511.356 121.486 507.839 127.97C504.115 134.729 500.761 141.686 497.793 148.811C496.257 152.518 494.927 156.379 493.571 160.314C492.215 164.249 490.857 168.24 489.472 172.278C483.994 188.452 479.276 204.043 476.15 218.512C472.999 232.972 474.892 226.685 474.618 237.881" fill="#F0F0F5"/>
<path d="M497.257 148.427C496.985 147.797 496.782 147.139 496.65 146.466C496.313 145.191 495.879 143.332 495.379 141.028C494.376 136.42 493.207 130.008 491.943 122.937C490.679 115.866 489.428 109.485 488.359 104.906C487.83 102.611 487.384 100.763 487.059 99.4886C486.848 98.8352 486.71 98.1605 486.648 97.4768C486.961 98.0871 487.206 98.7298 487.38 99.3934C487.804 100.643 488.343 102.476 488.948 104.755C490.175 109.313 491.532 115.697 492.795 122.779C494.022 129.761 495.132 136.077 495.98 140.904C496.377 143.083 496.713 144.917 496.982 146.391C497.147 147.057 497.239 147.74 497.257 148.427Z" fill="#F0F0F5"/>
<path d="M556.456 132.75C555.682 132.978 554.887 133.134 554.084 133.214C552.553 133.466 550.337 133.817 547.616 134.34C542.158 135.341 534.676 136.988 526.496 139.166C518.316 141.361 511 143.663 505.757 145.48C503.13 146.371 501.019 147.149 499.559 147.678C498.817 147.999 498.047 148.25 497.259 148.427C497.95 148.004 498.679 147.647 499.437 147.361C500.862 146.736 502.944 145.867 505.554 144.898C510.76 142.927 518.074 140.525 526.277 138.321C533.273 136.43 540.361 134.898 547.514 133.732C550.259 133.288 552.496 133.026 554.044 132.879C554.843 132.76 555.65 132.717 556.456 132.75Z" fill="#F0F0F5"/>
<path d="M476.033 217.176C475.846 216.964 475.689 216.728 475.567 216.473L474.38 214.374C473.358 212.546 471.947 209.863 470.248 206.526C466.843 199.852 462.432 190.484 457.702 180.082C452.971 169.679 448.651 160.28 445.39 153.545C443.796 150.271 442.482 147.578 441.508 145.577C441.089 144.708 440.744 143.991 440.461 143.402C440.322 143.156 440.217 142.891 440.149 142.616C440.335 142.829 440.492 143.066 440.616 143.32C440.936 143.887 441.328 144.579 441.802 145.418C442.825 147.246 444.235 149.928 445.935 153.266C449.339 159.941 453.75 169.308 458.482 179.715C463.214 190.123 467.532 199.512 470.792 206.25C472.388 209.521 473.7 212.215 474.675 214.213C475.094 215.081 475.438 215.8 475.721 216.387C475.86 216.635 475.965 216.9 476.033 217.176Z" fill="#F0F0F5"/>
<path d="M553.903 185.525C553.666 185.688 553.407 185.818 553.135 185.912C552.529 186.166 551.78 186.48 550.876 186.857C548.788 187.71 545.967 188.862 542.539 190.261C535.499 193.138 525.822 197.222 515.136 201.75C504.449 206.277 494.721 210.278 487.62 213.009C484.069 214.376 481.186 215.451 479.178 216.155C478.25 216.473 477.484 216.736 476.862 216.951C476.597 217.061 476.318 217.136 476.033 217.172C476.271 217.011 476.529 216.881 476.8 216.786L479.059 215.841L487.396 212.437C494.434 209.562 504.113 205.477 514.803 200.947C525.493 196.416 535.213 192.42 542.314 189.69C545.864 188.322 548.748 187.246 550.756 186.543C551.686 186.224 552.449 185.961 553.074 185.747C553.339 185.636 553.618 185.561 553.903 185.525Z" fill="#F0F0F5"/>
</svg>
